<?xml version="1.0" standalone="no"?>
<!DOCTYPE svg PUBLIC "-//W3C//DTD SVG 20010904//EN"
 "http://www.w3.org/TR/2001/REC-SVG-20010904/DTD/svg10.dtd">
<svg version="1.0" xmlns="http://www.w3.org/2000/svg"
 width="533.000000pt" height="533.000000pt" viewBox="0 0 533.000000 533.000000"
 preserveAspectRatio="xMidYMid meet">

<g transform="translate(0.000000,533.000000) scale(0.100000,-0.100000)"
fill="#000000" stroke="none">
<path d="M2420 5320 c-333 -34 -625 -118 -925 -265 -540 -264 -954 -677 -1220
-1220 -126 -256 -206 -514 -252 -812 -23 -151 -23 -565 0 -716 46 -298 126
-556 252 -812 134 -272 274 -472 479 -684 223 -228 453 -395 741 -537 256
-125 514 -205 812 -251 151 -23 565 -23 716 0 298 46 556 126 812 251 541 266
954 679 1220 1221 126 256 206 514 252 812 23 151 23 565 0 716 -75 485 -269
940 -557 1302 -87 109 -265 290 -380 387 -363 306 -849 521 -1342 594 -122 18
-488 26 -608 14z m163 -465 c77 -20 137 -56 199 -119 81 -83 131 -184 188
-385 17 -58 36 -119 42 -134 13 -34 55 -57 101 -57 46 0 230 -28 299 -45 54
-14 139 -52 200 -92 26 -16 32 -16 112 0 77 16 88 17 114 3 34 -17 42 -34 42
-82 0 -58 -18 -82 -110 -146 -25 -17 -71 -55 -102 -85 -77 -72 -106 -83 -226
-83 -91 0 -101 -2 -143 -28 -99 -63 -175 -153 -282 -330 -61 -102 -86 -161
-117 -279 -24 -93 -16 -138 28 -150 15 -4 101 -7 192 -8 163 0 166 0 216 28
29 16 79 52 113 80 83 69 96 105 88 237 -10 159 16 157 167 -13 97 -108 130
-170 148 -278 11 -65 11 -75 -11 -139 -31 -89 -79 -165 -106 -165 -19 0 -20 9
-26 135 -7 134 -30 239 -56 247 -20 7 -63 -50 -122 -162 -121 -229 -248 -410
-372 -532 -102 -99 -146 -132 -278 -205 -104 -57 -116 -66 -124 -98 -13 -49
-1 -420 18 -560 30 -220 50 -287 117 -391 l40 -63 -20 -126 c-34 -203 -88
-337 -185 -459 -62 -78 -100 -103 -134 -90 -41 15 -174 123 -249 200 -86 89
-128 153 -183 279 l-42 95 51 90 c90 162 95 185 94 450 -1 172 -6 267 -22 378
-22 165 -30 181 -96 197 -74 19 -124 41 -185 80 -73 47 -204 171 -273 257 -38
48 -66 71 -121 100 -46 25 -103 68 -163 125 -54 52 -100 88 -112 88 -35 0 -62
-46 -62 -104 0 -56 22 -108 71 -173 27 -35 30 -45 19 -58 -7 -8 -28 -15 -48
-15 -28 0 -42 8 -74 43 -85 91 -127 195 -135 338 -8 129 2 155 91 242 88 86
137 120 161 111 16 -6 17 -17 11 -104 -11 -141 -12 -139 107 -196 101 -48 103
-49 197 -48 113 1 179 19 255 69 73 49 79 79 37 173 -194 428 -226 488 -310
581 -76 86 -88 91 -234 91 -68 0 -143 5 -168 11 -46 10 -212 87 -241 111 -46
38 -53 115 -13 155 24 24 30 25 97 20 l72 -5 58 54 c77 72 122 96 316 175 113
45 171 74 183 90 9 13 29 78 44 144 31 143 58 213 120 312 93 150 184 215 325
233 103 13 341 4 412 -15z m1539 -1312 c9 -10 35 -56 58 -103 23 -47 52 -99
65 -116 36 -47 114 -183 145 -250 15 -34 36 -67 47 -75 11 -8 28 -27 38 -44
10 -16 34 -54 54 -84 34 -51 36 -57 33 -128 -3 -88 -18 -122 -65 -148 -33 -17
-34 -21 -33 -70 1 -44 -5 -62 -49 -135 -60 -103 -85 -152 -127 -250 -38 -89
-110 -196 -138 -205 -27 -9 -58 2 -70 25 -12 22 11 92 63 196 19 39 57 117 82
175 82 181 125 269 133 269 4 0 13 4 21 9 11 7 9 14 -9 39 -35 48 -32 103 8
145 41 42 43 66 3 38 -56 -40 -61 -36 -161 153 -51 96 -110 196 -131 222 -87
110 -100 160 -70 259 12 38 26 74 32 82 16 18 53 16 71 -4z m-58 -395 c59 -91
176 -323 176 -349 0 -18 -31 -31 -48 -20 -5 3 -40 66 -77 140 -37 74 -87 165
-111 201 -45 69 -53 95 -31 103 29 12 40 3 91 -75z m139 -649 c6 -10 -1 -40
-22 -95 -47 -117 -175 -359 -193 -362 -9 -2 -22 4 -30 12 -14 13 -4 38 83 213
54 109 105 211 114 226 16 30 32 32 48 6z m-211 -569 c44 -13 88 -61 88 -99 0
-58 -53 -90 -125 -77 -40 8 -125 80 -125 108 0 22 18 60 34 70 16 11 85 10
128 -2z m-216 -83 c12 -7 56 -44 97 -83 85 -81 94 -103 83 -207 -8 -69 -18
-92 -43 -101 -32 -13 -167 -36 -207 -36 -58 0 -117 39 -149 98 -31 58 -33 76
-10 117 9 17 23 64 32 105 14 65 20 77 50 97 38 26 111 31 147 10z m-222 -36
c35 -38 -11 -141 -62 -141 -31 0 -72 38 -72 67 0 33 60 93 92 93 14 0 33 -9
42 -19z m-186 -83 c13 -13 15 -49 6 -97 -11 -55 -101 -84 -125 -40 -18 34 -4
100 26 126 28 25 74 30 93 11z m194 -259 c18 -24 18 -28 4 -60 -50 -113 -150
-143 -172 -52 -10 40 7 74 55 111 51 39 85 39 113 1z m97 -86 c20 -17 20 -21
7 -68 -22 -82 -34 -105 -58 -114 -30 -11 -54 2 -62 34 -6 25 12 104 34 144 13
26 50 27 79 4z m272 -2 c21 -17 24 -28 23 -79 -2 -84 -6 -92 -53 -92 -49 0
-59 14 -68 99 -7 70 4 91 47 91 15 0 38 -9 51 -19z m-151 -21 c11 -7 14 -25
12 -76 -5 -96 -14 -114 -56 -114 -49 0 -60 24 -51 108 4 36 9 71 12 79 6 15
61 17 83 3z m-396 -52 c18 -25 21 -80 6 -108 -14 -26 -73 -44 -99 -30 -47 25
-56 96 -16 135 32 33 87 34 109 3z m566 -137 c14 -26 13 -74 -2 -89 -18 -18
-95 -15 -102 4 -11 29 -6 72 10 88 22 23 81 21 94 -3z m-363 1 c25 -16 20
-105 -7 -132 -46 -46 -109 -4 -96 62 10 50 33 78 64 78 15 0 33 -4 39 -8z
m181 -34 c13 -13 15 -49 6 -86 -8 -27 -46 -39 -80 -23 -20 9 -24 18 -24 54 0
24 5 48 12 55 16 16 70 16 86 0z m-452 -53 c9 -48 -2 -82 -31 -101 -59 -38
-101 13 -74 90 26 74 92 81 105 11z m635 -56 c6 -12 8 -36 4 -55 -5 -31 -9
-34 -43 -34 -46 0 -62 14 -62 55 0 40 16 55 57 55 23 0 36 -6 44 -21z m-417
-25 c25 -10 32 -71 11 -94 -22 -24 -58 -26 -79 -4 -19 18 -20 37 -5 67 19 35
39 44 73 31z m224 -16 c35 -35 -3 -117 -47 -103 -46 14 -68 74 -39 103 16 16
70 16 86 0z"/>
<path d="M2233 4810 c-126 -11 -183 -31 -240 -88 -93 -93 -159 -222 -198 -384
-40 -166 -41 -162 91 -228 61 -30 125 -67 143 -83 42 -35 71 -42 124 -29 23 6
123 18 222 27 264 24 307 30 382 58 38 13 89 32 116 42 54 19 63 37 54 120 -6
64 -67 247 -108 330 -36 71 -114 153 -178 188 -75 41 -242 60 -408 47z"/>
<path d="M3050 4031 c-71 -14 -77 -34 -25 -80 47 -41 112 -73 213 -105 113
-36 176 -34 253 4 33 17 63 38 66 47 7 18 -29 52 -89 84 -55 28 -64 25 -60
-18 3 -32 -2 -43 -27 -67 -17 -17 -41 -28 -56 -28 -65 0 -109 76 -79 136 8 16
14 31 14 33 0 6 -174 1 -210 -6z"/>
<path d="M2619 3986 c-2 -2 -89 -12 -194 -21 -273 -24 -300 -31 -388 -108 -91
-79 -156 -126 -232 -167 -74 -41 -95 -58 -95 -80 0 -9 29 -65 65 -125 35 -59
87 -165 116 -234 62 -153 165 -365 186 -387 12 -12 27 -14 69 -8 61 7 136 -8
206 -41 l46 -22 31 19 c56 36 173 71 246 74 84 4 88 8 110 113 47 217 74 272
256 518 66 89 99 142 97 156 -2 14 -29 36 -86 68 -86 49 -249 166 -273 196
-28 33 -141 68 -160 49z"/>
<path d="M1625 3923 c20 -38 19 -55 -6 -87 -51 -65 -133 -72 -170 -13 -14 22
-18 42 -14 65 3 17 3 32 0 32 -24 0 -175 -95 -175 -110 0 -5 19 -19 43 -31 61
-32 151 -35 277 -10 127 25 198 58 233 108 40 56 23 67 -103 71 l-100 4 15
-29z"/>
<path d="M3211 2564 c-85 -27 -220 -44 -348 -44 -116 0 -147 -10 -234 -74 -84
-62 -122 -76 -210 -76 -85 1 -138 14 -234 58 l-80 37 -190 3 c-104 2 -208 -1
-230 -6 -40 -9 -40 -9 -14 -20 15 -6 62 -16 105 -21 87 -13 299 -92 371 -140
60 -40 125 -52 273 -52 165 0 203 13 510 165 135 68 275 135 313 151 37 15 67
32 67 37 0 12 -16 9 -99 -18z m-186 -76 c13 -12 -32 -50 -54 -46 -20 4 -27 48
-9 59 14 9 47 3 63 -13z m-111 -30 c15 -20 14 -24 -6 -45 -39 -41 -108 -24
-108 27 0 32 9 38 62 39 27 1 41 -5 52 -21z m-807 -44 c12 -19 11 -24 -5 -44
-17 -22 -22 -23 -50 -11 -77 32 -76 85 1 79 27 -2 44 -10 54 -24z m654 16 c26
-14 25 -64 -2 -91 -25 -25 -80 -49 -113 -49 -14 0 -31 9 -40 22 -14 20 -14 24
0 47 36 56 67 81 102 81 18 0 42 -5 53 -10z m-480 -66 c41 -20 52 -40 42 -70
-15 -46 -34 -50 -96 -20 -31 14 -60 26 -65 26 -17 0 -44 39 -39 54 13 33 101
39 158 10z m260 -29 c5 -4 9 -21 9 -40 0 -31 -3 -35 -37 -41 -52 -10 -145 -10
-160 -1 -20 12 -16 74 5 87 17 11 163 7 183 -5z"/>
<path d="M2351 1947 c-6 -14 -4 -61 5 -122 21 -142 30 -542 15 -631 -7 -39
-33 -120 -58 -180 -63 -153 -64 -162 -7 -262 79 -138 243 -312 294 -312 45 0
149 182 175 305 26 124 21 175 -29 284 -79 173 -105 327 -113 671 -3 129 -9
243 -15 253 -8 15 -25 17 -134 17 -121 0 -125 -1 -133 -23z"/>
</g>
</svg>
